<svg width="8" height="7" viewBox="0 0 8 7" fill="none" xmlns="http://www.w3.org/2000/svg">
<g clip-path="url(#clip0_5_46)">
<path d="M6.36447 5.96333V5.41889C6.36447 5.1301 6.24974 4.85314 6.04554 4.64893C5.84133 4.44472 5.56437 4.33 5.27558 4.33H3.0978C2.80901 4.33 2.53205 4.44472 2.32784 4.64893C2.12363 4.85314 2.00891 5.1301 2.00891 5.41889V5.96333" stroke="white" stroke-linecap="round" stroke-linejoin="round"/>
<path d="M4.18667 3.24111C4.78804 3.24111 5.27556 2.7536 5.27556 2.15222C5.27556 1.55084 4.78804 1.06333 4.18667 1.06333C3.58529 1.06333 3.09778 1.55084 3.09778 2.15222C3.09778 2.7536 3.58529 3.24111 4.18667 3.24111Z" stroke="white" stroke-linecap="round" stroke-linejoin="round"/>
</g>
<defs>
<clipPath id="clip0_5_46">
<rect width="6.53333" height="6.53333" fill="white" transform="translate(0.920044 0.246666)"/>
</clipPath>
</defs>
</svg>
